<svg aria-hidden="true" style="position: absolute; width: 0; height: 0; overflow: hidden;" version="1.1"
    xmlns="http://www.w3.org/2000/svg" xmlns:xlink="http://www.w3.org/1999/xlink">
    <defs>
        <symbol id="icon-arrow" viewBox="0 0 32 32">
            <path
                d="M27.244 1.722c-0.154-1.094-1.165-1.856-2.259-1.702l-17.825 2.505c-1.094 0.154-1.856 1.165-1.702 2.259s1.165 1.856 2.259 1.702l15.844-2.227 2.227 15.844c0.154 1.094 1.165 1.856 2.259 1.702s1.856-1.165 1.702-2.259l-2.505-17.825zM5.195 31.955l21.665-28.751-3.194-2.407-21.665 28.751 3.195 2.407z">
            </path>
        </symbol>
        <symbol id="icon-check" viewBox="0 0 32 32">
            <path d="M8 13.333l-2.667 2.667 8 8 13.333-13.333-2.667-2.667-10.667 10.667-5.333-5.333z"></path>
        </symbol>
        <symbol id="icon-clock" viewBox="0 0 32 32">
            <path stroke-linejoin="round" stroke-linecap="round" stroke-miterlimit="4" stroke-width="2.4"
                d="M16 29.333c7.364 0 13.333-5.969 13.333-13.333s-5.97-13.333-13.333-13.333c-7.364 0-13.333 5.97-13.333 13.333s5.97 13.333 13.333 13.333z">
            </path>
            <path stroke-linejoin="round" stroke-linecap="round" stroke-miterlimit="4" stroke-width="2.4"
                d="M16 8v8l5.333 2.667"></path>
        </symbol>
        <symbol id="icon-eye-off" viewBox="0 0 32 32" fill="none" stroke="currentColor">
            <path stroke-linejoin="round" stroke-linecap="round" stroke-miterlimit="4" stroke-width="3.2"
                d="M23.92 23.92c-2.279 1.737-5.054 2.7-7.92 2.747-9.333 0-14.667-10.667-14.667-10.667 1.659-3.091 3.959-5.791 6.747-7.92M13.2 5.653c0.918-0.215 1.857-0.322 2.8-0.32 9.333 0 14.667 10.667 14.667 10.667-0.809 1.514-1.775 2.94-2.88 4.253M18.827 18.827c-0.366 0.393-0.808 0.708-1.298 0.927s-1.020 0.336-1.557 0.346c-0.537 0.009-1.071-0.089-1.569-0.291s-0.95-0.501-1.33-0.88c-0.38-0.38-0.679-0.832-0.88-1.33s-0.3-1.032-0.29-1.569c0.009-0.537 0.127-1.067 0.346-1.558s0.534-0.932 0.927-1.298" />
            <path stroke-linejoin="round" stroke-linecap="round" stroke-miterlimit="4" stroke-width="3.2"
                d="M1.333 1.333l29.333 29.333" />
        </symbol>

        <symbol id="icon-eye" viewBox="0 0 32 32" fill="none" stroke="currentColor">
            <path stroke-linejoin="round" stroke-linecap="round" stroke-miterlimit="4" stroke-width="3.2"
                d="M1.333 16c0 0 5.333-10.667 14.667-10.667s14.667 10.667 14.667 10.667-5.333 10.667-14.667 10.667c-9.333 0-14.667-10.667-14.667-10.667z" />
            <path fill="none" stroke-linejoin="round" stroke-linecap="round" stroke-miterlimit="4" stroke-width="3.2"
                d="M16 20c2.209 0 4-1.791 4-4s-1.791-4-4-4c-2.209 0-4 1.791-4 4s1.791 4 4 4z" />
        </symbol>
        <symbol id="icon-heart" viewBox="0 0 32 32" fill="currentColor">
            <path stroke-linejoin="round" stroke-linecap="round" stroke-miterlimit="4" stroke-width="2.4615"
                d="M27.787 6.147c-0.681-0.681-1.49-1.222-2.379-1.591s-1.844-0.559-2.807-0.559-1.917 0.19-2.807 0.559c-0.89 0.369-1.699 0.909-2.38 1.591l-1.413 1.413-1.413-1.413c-1.376-1.376-3.241-2.148-5.187-2.148s-3.811 0.773-5.187 2.148c-1.376 1.376-2.148 3.241-2.148 5.187s0.773 3.811 2.148 5.187l11.787 11.787 11.787-11.787c0.681-0.681 1.222-1.49 1.591-2.38s0.559-1.844 0.559-2.807-0.19-1.917-0.559-2.807c-0.369-0.89-0.909-1.699-1.591-2.38z">
            </path>
        </symbol>
        <symbol id="icon-question" viewBox="0 0 10 17">
            <path
                d="M2.5 5.3125C2.5 4.14043 3.39687 3.1875 4.5 3.1875H5.5C6.60313 3.1875 7.5 4.14043 7.5 5.3125V5.43203C7.5 6.15586 7.15313 6.82988 6.58125 7.21836L5.2625 8.11817C4.8753 8.38268 4.5568 8.74625 4.33622 9.17554C4.11564 9.60483 4.00003 10.0861 4 10.5752V10.625C4 11.2127 4.44688 11.6875 5 11.6875C5.55312 11.6875 6 11.2127 6 10.625V10.5785C6 10.3063 6.13125 10.0539 6.34375 9.90781L7.6625 9.00801C8.80625 8.22442 9.5 6.87969 9.5 5.43203V5.3125C9.5 2.96504 7.70937 1.0625 5.5 1.0625H4.5C2.29063 1.0625 0.5 2.96504 0.5 5.3125C0.5 5.9002 0.946875 6.375 1.5 6.375C2.05313 6.375 2.5 5.9002 2.5 5.3125ZM5 15.9375C5.33152 15.9375 5.64946 15.7976 5.88388 15.5485C6.1183 15.2994 6.25 14.9616 6.25 14.6094C6.25 14.2571 6.1183 13.9193 5.88388 13.6703C5.64946 13.4212 5.33152 13.2813 5 13.2813C4.66848 13.2813 4.35054 13.4212 4.11612 13.6703C3.8817 13.9193 3.75 14.2571 3.75 14.6094C3.75 14.9616 3.8817 15.2994 4.11612 15.5485C4.35054 15.7976 4.66848 15.9375 5 15.9375Z">
            </path>

        </symbol>
        <symbol id="icon-star" viewBox="0 0 32 32">
            <path stroke-linejoin="miter" stroke-linecap="butt" stroke-miterlimit="4" stroke-width="2.4"
                d="M19.6 9.395c0.318 0.603 0.898 1.024 1.57 1.141l7.6 1.313-5.375 5.535c-0.475 0.489-0.697 1.171-0.6 1.846l1.098 7.635-6.922-3.402-0.234-0.1c-0.476-0.169-0.996-0.169-1.473 0l-0.234 0.1-6.924 3.402 1.1-7.635c0.097-0.675-0.125-1.357-0.6-1.846l-5.377-5.535 7.602-1.313c0.672-0.116 1.252-0.538 1.57-1.141l3.6-6.822 3.6 6.822z">
            </path>
        </symbol>
        <symbol id="icon-user" viewBox="0 0 32 32">
            <path
                d="M16 5.333c1.415 0 2.771 0.562 3.771 1.562s1.562 2.357 1.562 3.771-0.562 2.771-1.562 3.771c-1 1-2.357 1.562-3.771 1.562s-2.771-0.562-3.771-1.562c-1-1-1.562-2.357-1.562-3.771s0.562-2.771 1.562-3.771c1-1 2.357-1.562 3.771-1.562zM16 18.667c5.893 0 10.667 2.387 10.667 5.333v2.667h-21.333v-2.667c0-2.947 4.773-5.333 10.667-5.333z">
            </path>
        </symbol>
        <symbol id="icon-users" viewBox="0 0 32 32">
            <path
                d="M18.266 21.752l-0.548 2.044-14.306-3.833 0.548-2.044c0 0 1.095-4.087 8.248-2.171s6.058 6.004 6.058 6.004zM17.291 11.086c0.189-0.707 0.165-1.455-0.070-2.149s-0.671-1.302-1.252-1.747c-0.581-0.446-1.281-0.709-2.012-0.757s-1.459 0.122-2.093 0.488c-0.634 0.366-1.146 0.912-1.469 1.569s-0.446 1.395-0.35 2.121c0.096 0.726 0.404 1.407 0.887 1.958s1.118 0.946 1.825 1.135c0.949 0.254 1.959 0.121 2.81-0.37s1.471-1.3 1.725-2.248zM19.3 17.648c0.498 0.654 0.846 1.41 1.021 2.214s0.171 1.636-0.011 2.438l-0.548 2.044 4.087 1.095 0.548-2.044c0 0 0.994-3.709-5.097-5.747zM20.804 8.194c-0.702-0.192-1.447-0.166-2.134 0.074 0.388 1.034 0.443 2.163 0.158 3.229s-0.898 2.017-1.751 2.718c0.475 0.552 1.106 0.947 1.811 1.131 0.948 0.254 1.959 0.121 2.81-0.37s1.471-1.3 1.725-2.248c0.254-0.949 0.121-1.959-0.37-2.81s-1.3-1.471-2.248-1.725z">
            </path>
        </symbol>

        <symbol id="icon-burger" viewBox="0 0 32 32">
            <path
                d="M4.799 8.001a1.6 1.6 0 0 1 1.6-1.6h19.2a1.6 1.6 0 0 1 0 3.2h-19.2a1.6 1.6 0 0 1-1.6-1.6zm0 8a1.6 1.6 0 0 1 1.6-1.6h19.2a1.6 1.6 0 0 1 0 3.2h-19.2a1.6 1.6 0 0 1-1.6-1.6zm0 8a1.6 1.6 0 0 1 1.6-1.6h19.2a1.6 1.6 0 0 1 0 3.2h-19.2a1.6 1.6 0 0 1-1.6-1.6z" />
        </symbol>

        <symbol id="icon-close" viewBox="0 0 32 32" fill="currentColor" stroke="currentColor">
            <path stroke-linejoin="round" stroke-linecap="round" stroke-miterlimit="4" stroke-width="2.5"
                d="M24 8l-16 16">
            </path>
            <path stroke-linejoin="round" stroke-linecap="round" stroke-miterlimit="4" stroke-width="2.5"
                d="M8 8l16 16"></path>
        </symbol>
        <symbol id="icon-ellipse" viewBox="0 0 1431 800" fill="currentColor" xmlns="http://www.w3.org/2000/svg">
            <g filter="url(#aa)">
                <circle cx="1234.5" cy="702.5" r="234.5" />
            </g>
            <defs>
                <filter id="aa" x="0" y="-532" width="2469" height="2469" filterUnits="userSpaceOnUse"
                    color-interpolation-filters="sRGB">
                    <feFlood flood-opacity="0" result="BackgroundImageFix" />
                    <feBlend in="SourceGraphic" in2="BackgroundImageFix" result="shape" />
                    <feGaussianBlur stdDeviation="500" result="effect1_foregroundBlur_1_77" />
                </filter>
            </defs>
        </symbol>
    </defs>
</svg>